<svg xmlns="http://www.w3.org/2000/svg" version="1.1" xmlns:xlink="http://www.w3.org/1999/xlink" xmlns:svgjs="http://svgjs.dev/svgjs" width="1440" height="550" preserveAspectRatio="none" viewBox="0 0 1440 550"><g mask="url(&quot;#SvgjsMask1004&quot;)" fill="none"><rect width="1440" height="550" x="0" y="0" fill="url(&quot;#SvgjsLinearGradient1005&quot;)"></rect><path d="M30 550L580 0L839.5 0L289.5 550z" fill="url(&quot;#SvgjsLinearGradient1006&quot;)"></path><path d="M347.8 550L897.8 0L1097.3 0L547.3 550z" fill="url(&quot;#SvgjsLinearGradient1006&quot;)"></path><path d="M679.6 550L1229.6 0L1351.1 0L801.1 550z" fill="url(&quot;#SvgjsLinearGradient1006&quot;)"></path><path d="M1439 550L889 0L479.5 0L1029.5 550z" fill="url(&quot;#SvgjsLinearGradient1007&quot;)"></path><path d="M1065.2 550L515.2 0L323.20000000000005 0L873.2 550z" fill="url(&quot;#SvgjsLinearGradient1007&quot;)"></path><path d="M781.4 550L231.39999999999998 0L-142.10000000000002 0L407.9 550z" fill="url(&quot;#SvgjsLinearGradient1007&quot;)"></path><path d="M1145.633584522857 550L1440 255.63358452285706L1440 550z" fill="url(&quot;#SvgjsLinearGradient1006&quot;)"></path><path d="M0 550L294.36641547714294 550L 0 255.63358452285706z" fill="url(&quot;#SvgjsLinearGradient1007&quot;)"></path></g><defs><mask id="SvgjsMask1004"><rect width="1440" height="550" fill="#ffffff"></rect></mask><linearGradient x1="50%" y1="100%" x2="50%" y2="0%" gradientUnits="userSpaceOnUse" id="SvgjsLinearGradient1005"><stop stop-color="rgba(194, 194, 194, 1)" offset="0"></stop><stop stop-color="rgba(255, 255, 255, 1)" offset="1"></stop></linearGradient><linearGradient x1="0%" y1="100%" x2="100%" y2="0%" id="SvgjsLinearGradient1006"><stop stop-color="rgba(77, 77, 77, 0.26)" offset="0"></stop><stop stop-opacity="0" stop-color="rgba(77, 77, 77, 0.26)" offset="0.66"></stop></linearGradient><linearGradient x1="100%" y1="100%" x2="0%" y2="0%" id="SvgjsLinearGradient1007"><stop stop-color="rgba(77, 77, 77, 0.26)" offset="0"></stop><stop stop-opacity="0" stop-color="rgba(77, 77, 77, 0.26)" offset="0.66"></stop></linearGradient></defs></svg>