<svg xmlns="http://www.w3.org/2000/svg" version="1.1" xmlns:xlink="http://www.w3.org/1999/xlink" xmlns:svgjs="http://svgjs.dev/svgjs" width="1440" height="560" preserveAspectRatio="none" viewBox="0 0 1440 560"><g mask="url(&quot;#SvgjsMask1706&quot;)" fill="none"><rect width="1440" height="560" x="0" y="0" fill="rgba(255, 255, 255, 1)"></rect><path d="M650.11 436.22L657.07 436.22L657.07 455.2L650.11 455.2z" fill="#d3b714"></path><path d="M1093.09 367.83L1104.18 367.83L1104.18 405.7L1093.09 405.7z" stroke="#037b0b"></path><path d="M838.66 74.35 a36.54 36.54 0 1 0 73.08 0 a36.54 36.54 0 1 0 -73.08 0z" stroke="#e73635"></path><path d="M448.43 115.51 a10.36 10.36 0 1 0 20.72 0 a10.36 10.36 0 1 0 -20.72 0z" stroke="#e73635"></path><path d="M245.43 529.51L265.94 529.51L265.94 550.7L245.43 550.7z" fill="#e73635"></path><path d="M1260.12 55.75L1287.4 55.75L1287.4 83.03L1260.12 83.03z" fill="#d3b714"></path><path d="M1314.16 435.24a15.67 15.67 0 1 0 30.94-5.04z" stroke="#d3b714"></path><path d="M239.55 46.31a13.56 13.56 0 1 0-18.28-20.04z" fill="#d3b714"></path><path d="M747.81 275.1 a8.09 8.09 0 1 0 16.18 0 a8.09 8.09 0 1 0 -16.18 0z" stroke="#037b0b"></path><path d="M543.96 103.24 a33.95 33.95 0 1 0 67.9 0 a33.95 33.95 0 1 0 -67.9 0z" fill="#e73635"></path><path d="M1002.08 267.53a0.38 0.38 0 1 0-0.13 0.75z" stroke="#e73635"></path><path d="M1190.15 473.38 a33.13 33.13 0 1 0 66.26 0 a33.13 33.13 0 1 0 -66.26 0z" fill="#037b0b"></path><path d="M349.79 553.81 a40.1 40.1 0 1 0 80.2 0 a40.1 40.1 0 1 0 -80.2 0z" stroke="#e73635"></path><path d="M281.32 230.49L308.26 230.49L308.26 284.63L281.32 284.63z" fill="#d3b714"></path><path d="M6.25 239.72 a22.09 22.09 0 1 0 44.18 0 a22.09 22.09 0 1 0 -44.18 0z" fill="#037b0b"></path><path d="M674.05 266.6a0.44 0.44 0 1 0 0.07-0.88z" fill="#037b0b"></path><path d="M336.77 200.6L342.83 200.6L342.83 246.12L336.77 246.12z" fill="#037b0b"></path><path d="M134.27 283.54a50.83 50.83 0 1 0-79.54 63.31z" stroke="#e73635"></path><path d="M1014.42 5.84a34.5 34.5 0 1 0-68.98-1.89z" stroke="#e73635"></path><path d="M1352.56 125.32a49.78 49.78 0 1 0-28.14 95.51z" stroke="#d3b714"></path><path d="M794.23 284.37L816.87 284.37L816.87 307.01L794.23 307.01z" fill="#d3b714"></path><path d="M592.5 172.55L618.23 172.55L618.23 198.28L592.5 198.28z" fill="#d3b714"></path><path d="M890.25 387.89 a27.51 27.51 0 1 0 55.02 0 a27.51 27.51 0 1 0 -55.02 0z" stroke="#037b0b"></path><path d="M1332.85 200.73L1332.89 200.73L1332.89 213.72L1332.85 213.72z" fill="#e73635"></path><path d="M1010.47 235.71L1015.35 235.71L1015.35 278.4L1010.47 278.4z" fill="#e73635"></path><path d="M1181.93 201.15L1210.74 201.15L1210.74 229.96L1181.93 229.96z" fill="#037b0b"></path><path d="M165.51 44.09a53 53 0 1 0 97.76 40.96z" stroke="#d3b714"></path><path d="M895.45 111.69a8.42 8.42 0 1 0 16.52 3.22z" fill="#e73635"></path><path d="M261.28 332.05L288.99 332.05L288.99 359.76L261.28 359.76z" stroke="#037b0b"></path><path d="M495.74 350.06L525.39 350.06L525.39 379.71L495.74 379.71z" stroke="#037b0b"></path><path d="M1202.05 363.85 a34.83 34.83 0 1 0 69.66 0 a34.83 34.83 0 1 0 -69.66 0z" stroke="#037b0b"></path><path d="M998.12 503.27L1023.4 503.27L1023.4 546.29L998.12 546.29z" fill="#d3b714"></path><path d="M808.28 360.07L836.97 360.07L836.97 364.77L808.28 364.77z" stroke="#d3b714"></path></g><defs><mask id="SvgjsMask1706"><rect width="1440" height="560" fill="#ffffff"></rect></mask></defs></svg>