<svg xmlns="http://www.w3.org/2000/svg" version="1.1" xmlns:xlink="http://www.w3.org/1999/xlink" xmlns:svgjs="http://svgjs.dev/svgjs" width="1440" height="560" preserveAspectRatio="none" viewBox="0 0 1440 560"><g mask="url(&quot;#SvgjsMask1038&quot;)" fill="none"><rect width="1440" height="560" x="0" y="0" fill="rgba(255, 255, 255, 1)"></rect><path d="M45.94 -5.48L110.89 32.02L110.89 107.02L45.94 144.52L-19.01 107.02L-19.01 32.02zM45.94 219.52L110.89 257.02L110.89 332.02L45.94 369.52L-19.01 332.02L-19.01 257.02zM110.89 557.02L175.85 594.52L175.85 669.52L110.89 707.02L45.94 669.52L45.94 594.52zM240.8 107.02L305.75 144.52L305.75 219.52L240.8 257.02L175.85 219.52L175.85 144.52zM240.8 332.02L305.75 369.52L305.75 444.52L240.8 482.02L175.85 444.52L175.85 369.52zM240.8 557.02L305.75 594.52L305.75 669.52L240.8 707.02L175.85 669.52L175.85 594.52zM305.75 219.52L370.71 257.02L370.71 332.02L305.75 369.52L240.8 332.02L240.8 257.02zM305.75 444.52L370.71 482.02L370.71 557.02L305.75 594.52L240.8 557.02L240.8 482.02zM370.71 557.02L435.66 594.52L435.66 669.52L370.71 707.02L305.75 669.52L305.75 594.52zM500.62 107.02L565.57 144.52L565.57 219.52L500.62 257.02L435.66 219.52L435.66 144.52zM435.66 444.52L500.62 482.02L500.62 557.02L435.66 594.52L370.71 557.02L370.71 482.02zM500.62 557.02L565.57 594.52L565.57 669.52L500.62 707.02L435.66 669.52L435.66 594.52zM565.57 219.52L630.52 257.02L630.52 332.02L565.57 369.52L500.62 332.02L500.62 257.02zM630.52 332.02L695.48 369.52L695.48 444.52L630.52 482.02L565.57 444.52L565.57 369.52zM565.57 444.52L630.52 482.02L630.52 557.02L565.57 594.52L500.62 557.02L500.62 482.02zM630.52 557.02L695.48 594.52L695.48 669.52L630.52 707.02L565.57 669.52L565.57 594.52zM695.48 219.52L760.43 257.02L760.43 332.02L695.48 369.52L630.52 332.02L630.52 257.02zM760.43 557.02L825.38 594.52L825.38 669.52L760.43 707.02L695.48 669.52L695.48 594.52zM890.34 107.02L955.29 144.52L955.29 219.52L890.34 257.02L825.38 219.52L825.38 144.52zM890.34 332.02L955.29 369.52L955.29 444.52L890.34 482.02L825.38 444.52L825.38 369.52zM890.34 557.02L955.29 594.52L955.29 669.52L890.34 707.02L825.38 669.52L825.38 594.52zM955.29 -5.48L1020.25 32.02L1020.25 107.02L955.29 144.52L890.34 107.02L890.34 32.02zM1020.25 107.02L1085.2 144.52L1085.2 219.52L1020.25 257.02L955.29 219.52L955.29 144.52zM955.29 219.52L1020.25 257.02L1020.25 332.02L955.29 369.52L890.34 332.02L890.34 257.02zM1150.15 332.02L1215.11 369.52L1215.11 444.52L1150.15 482.02L1085.2 444.52L1085.2 369.52zM1085.2 444.52L1150.15 482.02L1150.15 557.02L1085.2 594.52L1020.25 557.02L1020.25 482.02zM1215.11 -5.48L1280.06 32.02L1280.06 107.02L1215.11 144.52L1150.15 107.02L1150.15 32.02zM1280.06 107.02L1345.01 144.52L1345.01 219.52L1280.06 257.02L1215.11 219.52L1215.11 144.52zM1215.11 219.52L1280.06 257.02L1280.06 332.02L1215.11 369.52L1150.15 332.02L1150.15 257.02zM1280.06 332.02L1345.01 369.52L1345.01 444.52L1280.06 482.02L1215.11 444.52L1215.11 369.52zM1215.11 444.52L1280.06 482.02L1280.06 557.02L1215.11 594.52L1150.15 557.02L1150.15 482.02zM1280.06 557.02L1345.01 594.52L1345.01 669.52L1280.06 707.02L1215.11 669.52L1215.11 594.52zM1409.97 107.02L1474.92 144.52L1474.92 219.52L1409.97 257.02L1345.02 219.52L1345.02 144.52zM1345.02 219.52L1409.97 257.02L1409.97 332.02L1345.02 369.52L1280.06 332.02L1280.06 257.02zM1409.97 332.02L1474.92 369.52L1474.92 444.52L1409.97 482.02L1345.02 444.52L1345.02 369.52zM1474.92 -5.48L1539.88 32.02L1539.88 107.02L1474.92 144.52L1409.97 107.02L1409.97 32.02zM1539.88 107.02L1604.83 144.52L1604.83 219.52L1539.88 257.02L1474.92 219.52L1474.92 144.52zM1474.92 219.52L1539.88 257.02L1539.88 332.02L1474.92 369.52L1409.97 332.02L1409.97 257.02zM1474.92 444.52L1539.88 482.02L1539.88 557.02L1474.92 594.52L1409.97 557.02L1409.97 482.02z" stroke="rgba(160, 160, 160, 1)" stroke-width="2"></path><path d="M46.81 128.76L90.11 153.76L90.11 203.76L46.81 228.76L3.51 203.76L3.51 153.76zM46.81 278.76L90.11 303.76L90.11 353.76L46.81 378.76L3.51 353.76L3.51 303.76zM349.93 53.76L393.23 78.76L393.23 128.76L349.93 153.76L306.63 128.76L306.63 78.76zM306.63 278.76L349.93 303.76L349.93 353.76L306.63 378.76L263.32 353.76L263.32 303.76zM349.93 353.76L393.23 378.76L393.23 428.76L349.93 453.76L306.63 428.76L306.63 378.76zM436.53 53.76L479.84 78.76L479.84 128.76L436.53 153.76L393.23 128.76L393.23 78.76zM436.53 353.76L479.84 378.76L479.84 428.76L436.53 453.76L393.23 428.76L393.23 378.76zM393.23 428.76L436.53 453.76L436.53 503.76L393.23 528.76L349.93 503.76L349.93 453.76zM523.14 203.76L566.44 228.76L566.44 278.76L523.14 303.76L479.84 278.76L479.84 228.76zM523.14 353.76L566.44 378.76L566.44 428.76L523.14 453.76L479.84 428.76L479.84 378.76zM566.44 -21.24L609.74 3.76L609.74 53.76L566.44 78.76L523.14 53.76L523.14 3.76zM609.74 203.76L653.05 228.76L653.05 278.76L609.74 303.76L566.44 278.76L566.44 228.76zM566.44 428.76L609.74 453.76L609.74 503.76L566.44 528.76L523.14 503.76L523.14 453.76zM782.95 53.76L826.26 78.76L826.26 128.76L782.95 153.76L739.65 128.76L739.65 78.76zM869.56 503.76L912.86 528.76L912.86 578.76L869.56 603.76L826.26 578.76L826.26 528.76zM912.86 128.76L956.16 153.76L956.16 203.76L912.86 228.76L869.56 203.76L869.56 153.76zM956.16 203.76L999.47 228.76L999.47 278.76L956.16 303.76L912.86 278.76L912.86 228.76zM912.86 278.76L956.16 303.76L956.16 353.76L912.86 378.76L869.56 353.76L869.56 303.76zM912.86 428.76L956.16 453.76L956.16 503.76L912.86 528.76L869.56 503.76L869.56 453.76zM1042.77 503.76L1086.07 528.76L1086.07 578.76L1042.77 603.76L999.47 578.76L999.47 528.76zM1129.37 53.76L1172.67 78.76L1172.67 128.76L1129.37 153.76L1086.07 128.76L1086.07 78.76zM1215.98 353.76L1259.28 378.76L1259.28 428.76L1215.98 453.76L1172.67 428.76L1172.67 378.76zM1259.28 428.76L1302.58 453.76L1302.58 503.76L1259.28 528.76L1215.98 503.76L1215.98 453.76zM1345.88 128.76L1389.19 153.76L1389.19 203.76L1345.88 228.76L1302.58 203.76L1302.58 153.76zM1475.79 53.76L1519.1 78.76L1519.1 128.76L1475.79 153.76L1432.49 128.76L1432.49 78.76zM1432.49 128.76L1475.79 153.76L1475.79 203.76L1432.49 228.76L1389.19 203.76L1389.19 153.76z" stroke="rgba(195, 195, 195, 0.93)" stroke-width="2"></path></g><defs><mask id="SvgjsMask1038"><rect width="1440" height="560" fill="#ffffff"></rect></mask></defs></svg>