<svg xmlns="http://www.w3.org/2000/svg" version="1.1" xmlns:xlink="http://www.w3.org/1999/xlink" xmlns:svgjs="http://svgjs.dev/svgjs" width="1440" height="560" preserveAspectRatio="none" viewBox="0 0 1440 560"><g mask="url(&quot;#SvgjsMask1002&quot;)" fill="none"><rect width="1440" height="560" x="0" y="0" fill="rgba(255, 255, 255, 1)"></rect><path d="M11.52 -13.4L76.47 24.1L76.47 99.1L11.52 136.6L-53.43 99.1L-53.43 24.1zM11.52 211.6L76.47 249.1L76.47 324.1L11.52 361.6L-53.43 324.1L-53.43 249.1zM76.47 324.1L141.43 361.6L141.43 436.6L76.47 474.1L11.52 436.6L11.52 361.6zM76.47 549.1L141.43 586.6L141.43 661.6L76.47 699.1L11.52 661.6L11.52 586.6zM141.43 -13.4L206.38 24.1L206.38 99.1L141.43 136.6L76.47 99.1L76.47 24.1zM141.43 211.6L206.38 249.1L206.38 324.1L141.43 361.6L76.47 324.1L76.47 249.1zM271.33 -13.4L336.29 24.1L336.29 99.1L271.33 136.6L206.38 99.1L206.38 24.1zM271.33 211.6L336.29 249.1L336.29 324.1L271.33 361.6L206.38 324.1L206.38 249.1zM336.29 324.1L401.24 361.6L401.24 436.6L336.29 474.1L271.33 436.6L271.33 361.6zM271.33 436.6L336.29 474.1L336.29 549.1L271.33 586.6L206.38 549.1L206.38 474.1zM401.24 -13.4L466.2 24.1L466.2 99.1L401.24 136.6L336.29 99.1L336.29 24.1zM531.15 211.6L596.1 249.1L596.1 324.1L531.15 361.6L466.2 324.1L466.2 249.1zM596.1 324.1L661.06 361.6L661.06 436.6L596.1 474.1L531.15 436.6L531.15 361.6zM531.15 436.6L596.1 474.1L596.1 549.1L531.15 586.6L466.2 549.1L466.2 474.1zM661.06 -13.4L726.01 24.1L726.01 99.1L661.06 136.6L596.1 99.1L596.1 24.1zM661.06 436.6L726.01 474.1L726.01 549.1L661.06 586.6L596.1 549.1L596.1 474.1zM790.96 211.6L855.92 249.1L855.92 324.1L790.96 361.6L726.01 324.1L726.01 249.1zM855.92 324.1L920.87 361.6L920.87 436.6L855.92 474.1L790.96 436.6L790.96 361.6zM985.83 99.1L1050.78 136.6L1050.78 211.6L985.83 249.1L920.87 211.6L920.87 136.6zM920.87 436.6L985.83 474.1L985.83 549.1L920.87 586.6L855.92 549.1L855.92 474.1zM985.83 549.1L1050.78 586.6L1050.78 661.6L985.83 699.1L920.87 661.6L920.87 586.6zM1180.69 -13.4L1245.64 24.1L1245.64 99.1L1180.69 136.6L1115.73 99.1L1115.73 24.1zM1245.64 99.1L1310.59 136.6L1310.59 211.6L1245.64 249.1L1180.69 211.6L1180.69 136.6zM1180.69 436.6L1245.64 474.1L1245.64 549.1L1180.69 586.6L1115.73 549.1L1115.73 474.1zM1310.6 -13.4L1375.55 24.1L1375.55 99.1L1310.6 136.6L1245.64 99.1L1245.64 24.1zM1310.6 211.6L1375.55 249.1L1375.55 324.1L1310.6 361.6L1245.64 324.1L1245.64 249.1zM1440.5 436.6L1505.46 474.1L1505.46 549.1L1440.5 586.6L1375.55 549.1L1375.55 474.1z" stroke="rgba(129, 129, 129, 1)" stroke-width="2"></path><path d="M89.69 38.62L133 63.62L133 113.62L89.69 138.62L46.39 113.62L46.39 63.62zM89.69 188.62L133 213.62L133 263.62L89.69 288.62L46.39 263.62L46.39 213.62zM89.69 338.62L133 363.62L133 413.62L89.69 438.62L46.39 413.62L46.39 363.62zM89.69 488.62L133 513.62L133 563.62L89.69 588.62L46.39 563.62L46.39 513.62zM133 113.62L176.3 138.62L176.3 188.62L133 213.62L89.69 188.62L89.69 138.62zM133 263.62L176.3 288.62L176.3 338.62L133 363.62L89.69 338.62L89.69 288.62zM176.3 488.62L219.6 513.62L219.6 563.62L176.3 588.62L133 563.62L133 513.62zM262.9 38.62L306.2 63.62L306.2 113.62L262.9 138.62L219.6 113.62L219.6 63.62zM349.51 38.62L392.81 63.62L392.81 113.62L349.51 138.62L306.2 113.62L306.2 63.62zM436.11 38.62L479.42 63.62L479.42 113.62L436.11 138.62L392.81 113.62L392.81 63.62zM436.11 188.62L479.42 213.62L479.42 263.62L436.11 288.62L392.81 263.62L392.81 213.62zM392.81 413.62L436.11 438.62L436.11 488.62L392.81 513.62L349.51 488.62L349.51 438.62zM566.02 -36.38L609.32 -11.38L609.32 38.62L566.02 63.62L522.72 38.62L522.72 -11.38zM609.32 338.62L652.63 363.62L652.63 413.62L609.32 438.62L566.02 413.62L566.02 363.62zM609.32 488.62L652.63 513.62L652.63 563.62L609.32 588.62L566.02 563.62L566.02 513.62zM739.23 263.62L782.53 288.62L782.53 338.62L739.23 363.62L695.93 338.62L695.93 288.62zM739.23 413.62L782.53 438.62L782.53 488.62L739.23 513.62L695.93 488.62L695.93 438.62zM782.53 488.62L825.84 513.62L825.84 563.62L782.53 588.62L739.23 563.62L739.23 513.62zM912.44 -36.38L955.74 -11.38L955.74 38.62L912.44 63.62L869.14 38.62L869.14 -11.38zM912.44 113.62L955.74 138.62L955.74 188.62L912.44 213.62L869.14 188.62L869.14 138.62zM912.44 263.62L955.74 288.62L955.74 338.62L912.44 363.62L869.14 338.62L869.14 288.62zM1042.35 188.62L1085.65 213.62L1085.65 263.62L1042.35 288.62L999.05 263.62L999.05 213.62zM1042.35 338.62L1085.65 363.62L1085.65 413.62L1042.35 438.62L999.05 413.62L999.05 363.62zM999.05 413.62L1042.35 438.62L1042.35 488.62L999.05 513.62L955.74 488.62L955.74 438.62zM1085.65 263.62L1128.95 288.62L1128.95 338.62L1085.65 363.62L1042.35 338.62L1042.35 288.62zM1128.95 338.62L1172.26 363.62L1172.26 413.62L1128.95 438.62L1085.65 413.62L1085.65 363.62zM1128.95 488.62L1172.26 513.62L1172.26 563.62L1128.95 588.62L1085.65 563.62L1085.65 513.62zM1215.56 38.62L1258.86 63.62L1258.86 113.62L1215.56 138.62L1172.26 113.62L1172.26 63.62zM1258.86 413.62L1302.16 438.62L1302.16 488.62L1258.86 513.62L1215.56 488.62L1215.56 438.62zM1345.47 -36.38L1388.77 -11.38L1388.77 38.62L1345.47 63.62L1302.16 38.62L1302.16 -11.38zM1475.37 488.62L1518.68 513.62L1518.68 563.62L1475.37 588.62L1432.07 563.62L1432.07 513.62z" stroke="rgba(195, 195, 195, 0.93)" stroke-width="2"></path></g><defs><mask id="SvgjsMask1002"><rect width="1440" height="560" fill="#ffffff"></rect></mask></defs></svg>